# xmcd CD database file generated by Grip 3.2.0
# 
# Track frame offsets:
#       150
#       19314
#       43145
#       69077
#       96119
#       115660
#       140820
# 
# Disc length: 2219 seconds
# 
# Revision: 4
# Processed by: cddbd v1.5.1PL0 Copyright (c) Steve Scherf et al.
# Submitted via: Grip 3.2.0
# 
DISCID=5c08a907
DTITLE=Never The Same - One Boot Your Way
DYEAR=1999
DGENRE=Blues
TTITLE0=Ble-Bop
TTITLE1=Green Yellow
TTITLE2=Big Mouth
TTITLE3=Can't Fight Love
TTITLE4=Rock Yer World
TTITLE5=Sweet Sugar
TTITLE6=Sweet Sinsemilla
EXTD=
EXTT0=
EXTT1=
EXTT2=
EXTT3=
EXTT4=
EXTT5=
EXTT6=
PLAYORDER=
